<svg width="24" height="24" viewBox="0 0 24 24" fill="none" xmlns="http://www.w3.org/2000/svg">
<path d="M19.5 22.5H4.5C4.10218 22.5 3.72064 22.342 3.43934 22.0607C3.15804 21.7794 3 21.3978 3 21V3C3 2.60218 3.15804 2.22064 3.43934 1.93934C3.72064 1.65804 4.10218 1.5 4.5 1.5H19.5C19.8978 1.5 20.2794 1.65804 20.5607 1.93934C20.842 2.22064 21 2.60218 21 3V21C21 21.3978 20.842 21.7794 20.5607 22.0607C20.2794 22.342 19.8978 22.5 19.5 22.5ZM4.5 3V21H19.5V3H4.5Z" fill="black"/>
<path d="M6.75 5.25H15V6.75H6.75V5.25ZM6.75 9H12V10.5H6.75V9Z" fill="black"/>
</svg>
